#!OML:ASF E:\emotionWalksFemale\Project 1\Capture day 1\Session 1\Female1.ASF
:FULLY-SPECIFIED
:DEGREES
651
root 7.66854 15.2901 7.68889 -182.136 4.91831 -176.773
lowerback 10.5422 1.47228 -2.84851
upperback -2.06565 1.51558 -5.33774
thorax -8.06148 0.872972 -4.36771
lowerneck -10.7311 -3.41441 -9.77598
upperneck 14.7222 -6.53543 16.3771
head 7.11396 -2.74975 6.36918
rclavicle -2.98177e-016 8.5875e-014
rhumerus -36.0836 44.5425 -124.381
rradius 52.055
rwrist 3.56585
rhand -1.03819 -57.978
rfingers 7.12502
rthumb 24.5956 -446.418
lclavicle -2.98177e-016 8.5875e-014
lhumerus -60.1739 -65.4943 148.117
lradius 104.06
lwrist 34.398
lhand 18.2041 -26.3597
lfingers 7.12502
lthumb 42.8585 -2.06397
rfemur -14.781 -1.67459 26.4467
rtibia 73.437
rfoot 4.16673 -10.5204
rtoes 10.8977
lfemur -21.2463 -5.51883 -19.9528
ltibia 37.0399
lfoot -16.9284 6.61145
ltoes -27.2751
652
root 7.65241 15.2942 7.57942 -182.27 4.97376 -177.173
lowerback 10.4682 1.36587 -3.23507
upperback -1.92267 1.34546 -5.38941
thorax -7.88093 0.814677 -4.16542
lowerneck -10.7451 -4.26934 -9.4507
upperneck 15.0815 -6.26523 16.0641
head 7.19981 -1.95724 6.31987
rclavicle -3.03644e-014 -5.08889e-014
rhumerus -35.8503 45.2243 -124.266
rradius 51.5498
rwrist 3.81023
rhand -1.00521 -57.0135
rfingers 7.12502
rthumb 24.6272 -445.449
lclavicle -3.03644e-014 -5.08889e-014
lhumerus -60.0688 -65.6193 147.983
lradius 104.137
lwrist 34.3386
lhand 18.3504 -26.4962
lfingers 7.12502
lthumb 42.9954 -2.24867
rfemur -15.8779 -1.71569 26.0257
rtibia 73.8293
rfoot 2.97306 -10.7292
rtoes 10.5981
lfemur -20.6671 -5.05708 -20.5825
ltibia 37.1091
lfoot -17.4397 6.41052
ltoes -28.0943
653
root 7.6398 15.2993 7.46545 -182.341 5.02347 -177.597
lowerback 10.3481 1.23849 -3.70256
upperback -1.81718 1.14069 -5.43778
thorax -7.71568 0.742555 -3.90885
lowerneck -10.8838 -4.23638 -9.20966
upperneck 15.2643 -6.2357 15.8076
head 7.26267 -1.94164 6.19549
rclavicle 2.05742e-014 -6.36111e-015
rhumerus -35.62 45.5021 -124.172
rradius 51.3031
rwrist 3.87361
rhand -1.15171 -56.6032
rfingers 7.12502
rthumb 24.4868 -445.058
lclavicle 2.05742e-014 -6.36111e-015
lhumerus -59.6776 -65.741 147.64
lradius 104.085
lwrist 34.3222
lhand 18.232 -26.6357
lfingers 7.12502
lthumb 42.8847 -2.34911
rfemur -16.9499 -1.71894 25.62
rtibia 74.0669
rfoot 1.82505 -10.8897
rtoes 10.2164
lfemur -20.1315 -4.627 -21.2167
ltibia 37.1771
lfoot -17.9269 6.287
ltoes -28.8722
654
root 7.62667 15.2999 7.35091 -182.257 5.10807 -177.74
lowerback 10.2096 1.12966 -3.75311
upperback -1.81793 0.999724 -5.47197
thorax -7.6425 0.677098 -3.88765
lowerneck -10.9752 -4.20034 -8.86378
upperneck 15.5108 -6.21132 15.4738
head 7.33244 -1.9262 6.02781
rclavicle -2.28602e-015 -9.54166e-015
rhumerus -35.5592 45.4149 -124.228
rradius 51.2641
rwrist 3.48985
rhand -1.97578 -56.4871
rfingers 7.12502
rthumb 23.6966 -445.046
lclavicle -2.28602e-015 -9.54166e-015
lhumerus -59.7745 -65.8256 147.766
lradius 103.999
lwrist 34.23
lhand 17.9688 -26.5611
lfingers 7.12502
lthumb 42.6384 -2.18863
rfemur -18.139 -1.62749 25.5883
rtibia 74.1543
rfoot 0.860313 -10.9688
rtoes 8.35783
lfemur -19.8214 -4.27469 -21.5055
ltibia 37.2938
lfoot -18.4464 6.2526
ltoes -29.425
655
root 7.61909 15.2955 7.23929 -182.355 5.20785 -177.546
lowerback 10.3187 1.01885 -3.53004
upperback -1.77826 0.8638 -5.36754
thorax -7.66549 0.595767 -3.88
lowerneck -10.9243 -4.07207 -8.78233
upperneck 15.6927 -6.05017 15.4364
head 7.35571 -1.83975 6.02401
rclavicle 2.5345e-015 9.06458e-014
rhumerus -35.7106 45.5528 -124.365
rradius 51.3229
rwrist 2.78158
rhand -2.9747 -56.6928
rfingers 7.12502
rthumb 22.7382 -445.373
lclavicle 2.5345e-015 9.06458e-014
lhumerus -59.9664 -65.995 148.018
lradius 104.138
lwrist 34.1274
lhand 17.4619 -26.2098
lfingers 7.12502
lthumb 42.1638 -1.67482
rfemur -19.0658 -1.51479 25.9965
rtibia 74.069
rfoot -0.14363 -11.1709
rtoes 5.98957
lfemur -19.3481 -3.92128 -21.4043
ltibia 37.473
lfoot -19.0124 6.19437
ltoes -30.3275
656
root 7.61108 15.2869 7.13438 -182.683 5.32248 -177.359
lowerback 10.7311 0.911732 -3.37949
upperback -1.70243 0.706287 -5.20934
thorax -7.82682 0.506937 -3.77934
lowerneck -10.7867 -3.94354 -8.91979
upperneck 15.7886 -5.87613 15.5914
head 7.34654 -1.7497 6.12493
rclavicle -2.49475e-014 0
rhumerus -35.7363 45.3776 -124.174
rradius 51.4561
rwrist 3.30933
rhand -2.26237 -57.171
rfingers 7.12502
rthumb 23.4217 -445.766
lclavicle -2.49475e-014 0
lhumerus -60.0937 -65.9943 148.248
lradius 104.285
lwrist 34.1953
lhand 17.1742 -26.1457
lfingers 7.12502
lthumb 41.8942 -1.5203
rfemur -19.7223 -1.35559 26.377
rtibia 73.8486
rfoot -1.18933 -11.3952
rtoes 4.03373
lfemur -18.65 -3.5332 -21.3187
ltibia 37.6907
lfoot -19.6262 6.36762
ltoes -32.1797
657
root 7.59438 15.2767 7.0384 -182.794 5.37306 -177.755
lowerback 11.0701 0.785438 -3.6812
upperback -1.76516 0.476138 -5.28608
thorax -8.10132 0.412393 -3.6671
lowerneck -10.6509 -3.87072 -8.86731
upperneck 15.9465 -5.79495 15.6131
head 7.36031 -1.69987 6.13815
rclavicle 2.23633e-015 3.81667e-014
rhumerus -35.6805 44.8419 -123.949
rradius 51.4555
rwrist 4.6929
rhand -0.421214 -57.1902
rfingers 7.12502
rthumb 25.1869 -445.548
lclavicle 2.23633e-015 3.81667e-014
lhumerus -60.0747 -65.5151 148.128
lradius 104.164
lwrist 34.0519
lhand 17.651 -26.566
lfingers 7.12502
lthumb 42.3409 -2.09116
rfemur -20.728 -1.24147 26.0368
rtibia 73.6121
rfoot -2.10391 -11.5808
rtoes 2.56991
lfemur -18.2228 -3.24516 -21.8948
ltibia 37.8816
lfoot -20.1485 6.56234
ltoes -33.1653
